<svg width="48" height="48" viewBox="0 0 48 48" fill="none" xmlns="http://www.w3.org/2000/svg">
<path d="M37.2346 17.8887C37.7111 19.0773 36.8535 20.376 35.5731 20.4044L27.7798 20.5777C26.3005 20.6106 25.3933 18.9684 26.2087 17.7337L31.1016 10.3248C31.917 9.09012 33.7836 9.27967 34.3341 10.6531L37.2346 17.8887Z" fill="#2D3C48"/>
<path fill-rule="evenodd" clip-rule="evenodd" d="M32.426 18.8152C29.5597 14.0987 23.4126 12.5988 18.6961 15.4651C13.9795 18.3314 12.4796 24.4785 15.3459 29.195C18.2122 33.9116 24.3593 35.4115 29.0759 32.5452C31.0719 31.3322 32.4897 29.535 33.2469 27.5053C33.5171 26.7809 34.3235 26.4127 35.0479 26.6829C35.7723 26.9532 36.1405 27.7595 35.8703 28.484C34.9011 31.0819 33.0825 33.3868 30.53 34.938C24.492 38.6074 16.6225 36.6872 12.9531 30.6492C9.28372 24.6111 11.2039 16.7417 17.2419 13.0723C23.28 9.40286 31.1494 11.323 34.8188 17.3611C35.2204 18.0218 35.0103 18.883 34.3495 19.2846C33.6888 19.6861 32.8276 19.476 32.426 18.8152Z" fill="#2D3C48"/>
</svg>
