<svg width="40" height="40" viewBox="0 0 40 40" fill="none" xmlns="http://www.w3.org/2000/svg">
<path d="M36.6673 19.9997C36.6673 10.7997 29.2007 3.33301 20.0007 3.33301C10.8007 3.33301 3.33398 10.7997 3.33398 19.9997C3.33398 28.3163 9.43399 35.2163 17.4007 36.4663V24.8163H13.1673V19.9997H17.4007V16.333C17.4007 12.1497 19.884 9.84967 23.7007 9.84967C25.5173 9.84967 27.434 10.183 27.434 10.183V14.283H25.334C23.2673 14.283 22.6173 15.5663 22.6173 16.883V19.9997H27.234L26.5007 24.8163H22.6173V36.4663C30.5673 35.2163 36.6673 28.3163 36.6673 19.9997Z" fill="#1877F2"/>
<path d="M26.4846 24.8163L27.2346 19.9997H22.618V16.8663C22.618 15.5497 23.268 14.2663 25.3346 14.2663H27.4346V10.1663C27.4346 10.1663 25.5346 9.83301 23.7013 9.83301C19.9013 9.83301 17.4013 12.133 17.4013 16.3163V19.9997H13.168V24.8163H17.4013V36.4663C18.2513 36.5997 19.118 36.6663 20.0013 36.6663C20.8846 36.6663 21.7513 36.5997 22.6013 36.4663V24.8163H26.4846Z" fill="white"/>
</svg>
