<svg width="40" height="40" viewBox="0 0 40 40" fill="none" xmlns="http://www.w3.org/2000/svg">
<g clip-path="url(#clip0_731_6570)">
<path d="M20.0007 36.6663C29.2054 36.6663 36.6673 29.2044 36.6673 19.9997C36.6673 10.7949 29.2054 3.33301 20.0007 3.33301C10.7959 3.33301 3.33398 10.7949 3.33398 19.9997C3.33398 29.2044 10.7959 36.6663 20.0007 36.6663Z" fill="#F6DA01"/>
<path d="M19.9993 10.6504C14.016 10.6504 9.16602 14.3837 9.16602 18.9837C9.16602 21.8837 11.0993 24.4504 14.0327 25.9337C13.7827 26.9837 13.3493 28.8004 13.1827 29.7171C13.1493 29.9171 13.366 30.0671 13.5493 29.9671C14.3827 29.5004 16.2993 28.3671 17.9493 27.1671C18.616 27.2671 19.2993 27.3171 19.9993 27.3171C25.9827 27.3171 30.8327 23.5837 30.8327 18.9837C30.8327 14.3837 25.9827 10.6504 19.9993 10.6504Z" fill="#3A1E19"/>
<path d="M19.2669 19.7171L18.1003 16.7338C18.0169 16.5338 17.8503 16.3838 17.6003 16.3838C17.3836 16.3838 17.1669 16.5338 17.1003 16.7338L15.9336 19.7171L15.7669 20.1671L15.4003 21.1171C15.3169 21.3338 15.4336 21.5671 15.6336 21.6338C15.8336 21.7005 16.0836 21.6005 16.1669 21.4005L16.5003 20.5171H18.6836L19.0169 21.4005C19.1003 21.6171 19.3336 21.7171 19.5503 21.6338C19.7669 21.5505 19.8669 21.3171 19.7836 21.1171L19.3836 20.1005L19.2669 19.7171ZM16.8169 19.7171L17.6003 17.7005L18.3836 19.7171H16.8169Z" fill="#F6DA01"/>
<path d="M27.6335 20.9668L26.0668 18.8001L27.4835 17.4168C27.6668 17.2335 27.6668 16.9335 27.4835 16.7501C27.3001 16.5668 27.0001 16.5668 26.8001 16.7501L24.8001 18.7168V16.8668C24.8001 16.6501 24.6168 16.4668 24.3835 16.4668C24.1501 16.4668 23.9668 16.6501 23.9668 16.8668V21.2335C23.9668 21.4501 24.1501 21.6335 24.3835 21.6335C24.6168 21.6335 24.8001 21.4501 24.8001 21.2335V20.0501L25.3835 19.4835L26.8501 21.5168C27.0001 21.7335 27.3001 21.7835 27.5168 21.6335C27.7501 21.4668 27.7835 21.1835 27.6335 20.9668Z" fill="#F6DA01"/>
<path d="M20.5488 21.3668V16.8668C20.5488 16.6501 20.7322 16.4668 20.9655 16.4668C21.1988 16.4668 21.3822 16.6501 21.3822 16.8668V20.8335H22.9822C23.2155 20.8335 23.3988 21.0168 23.3988 21.2335C23.3988 21.4501 23.2155 21.6335 22.9822 21.6335H21.3822H20.7988C20.7155 21.6335 20.5488 21.5335 20.5488 21.3668Z" fill="#F6DA01"/>
<path d="M15.8324 16.9335C15.8324 16.6668 15.5991 16.4668 15.3324 16.4668H14.1824H13.3491H12.2158C11.9491 16.4668 11.7324 16.6835 11.7324 16.9501C11.7324 17.2168 11.9491 17.4335 12.2158 17.4335H13.3658V21.2501C13.3658 21.4668 13.5491 21.6501 13.7824 21.6501C14.0158 21.6501 14.1991 21.4668 14.1991 21.2501V17.4335H15.3324C15.5991 17.4168 15.8324 17.2001 15.8324 16.9335Z" fill="#F6DA01"/>
</g>
<defs>
<clipPath id="clip0_731_6570">
<rect width="40" height="40" fill="white"/>
</clipPath>
</defs>
</svg>
