<svg width="40" height="40" viewBox="0 0 40 40" fill="none" xmlns="http://www.w3.org/2000/svg">
<g clip-path="url(#clip0_731_6573)">
<path d="M20.0007 36.6663C29.2054 36.6663 36.6673 29.2044 36.6673 19.9997C36.6673 10.7949 29.2054 3.33301 20.0007 3.33301C10.7959 3.33301 3.33398 10.7949 3.33398 19.9997C3.33398 29.2044 10.7959 36.6663 20.0007 36.6663Z" fill="#FFC71C"/>
<path fill-rule="evenodd" clip-rule="evenodd" d="M16.7652 12.9873C16.3642 12.9873 16.0391 13.3124 16.0391 13.7134V20.8266C16.0391 21.2276 16.3642 21.5527 16.7652 21.5527H21.5002C21.2448 22.191 20.878 22.8935 20.448 23.5733C19.7617 24.6581 19.0171 25.5232 18.5017 25.9043L19.7967 27.6559C20.6303 27.0396 21.5464 25.9116 22.2889 24.7379C23.0363 23.5565 23.7107 22.1664 23.9587 20.9536L23.9582 20.9535C23.9655 20.9123 23.9692 20.8699 23.9692 20.8266V13.7134C23.9692 13.3124 23.6441 12.9873 23.2431 12.9873H16.7652Z" fill="white"/>
</g>
<defs>
<clipPath id="clip0_731_6573">
<rect width="40" height="40" fill="white"/>
</clipPath>
</defs>
</svg>
