<svg width="18" height="18" viewBox="0 0 18 18" fill="none" xmlns="http://www.w3.org/2000/svg">
<path d="M7.94999 8.88027C7.94999 10.0401 7.00979 10.9803 5.85 10.9803C4.6902 10.9803 3.75 10.0401 3.75 8.88027C3.75 7.72047 4.6902 6.78027 5.85 6.78027C7.00979 6.78027 7.94999 7.72047 7.94999 8.88027Z" fill="#6C8397"/>
<path d="M14.2508 5.1C14.2508 6.25979 13.3106 7.19999 12.1508 7.19999C10.991 7.19999 10.0508 6.25979 10.0508 5.1C10.0508 3.9402 10.991 3 12.1508 3C13.3106 3 14.2508 3.9402 14.2508 5.1Z" fill="#6C8397"/>
<path d="M14.2508 12.6596C14.2508 13.8194 13.3106 14.7596 12.1508 14.7596C10.991 14.7596 10.0508 13.8194 10.0508 12.6596C10.0508 11.4998 10.991 10.5596 12.1508 10.5596C13.3106 10.5596 14.2508 11.4998 14.2508 12.6596Z" fill="#6C8397"/>
<path fill-rule="evenodd" clip-rule="evenodd" d="M11.9426 4.73535L12.3592 5.46478L6.28763 8.93223L12.3544 12.2927L11.9474 13.0275L4.57422 8.94341L11.9426 4.73535Z" fill="#6C8397"/>
</svg>
