<svg width="48" height="48" viewBox="0 0 48 48" fill="none" xmlns="http://www.w3.org/2000/svg">
<path d="M21.2 23.6801C21.2 26.7729 18.6928 29.2801 15.6 29.2801C12.5072 29.2801 10 26.7729 10 23.6801C10 20.5873 12.5072 18.0801 15.6 18.0801C18.6928 18.0801 21.2 20.5873 21.2 23.6801Z" fill="#6D4D45"/>
<path d="M38 13.6C38 16.6928 35.4928 19.2 32.4 19.2C29.3073 19.2 26.8 16.6928 26.8 13.6C26.8 10.5072 29.3073 8 32.4 8C35.4928 8 38 10.5072 38 13.6Z" fill="#6D4D45"/>
<path d="M38 33.7599C38 36.8527 35.4928 39.3599 32.4 39.3599C29.3073 39.3599 26.8 36.8527 26.8 33.7599C26.8 30.6671 29.3073 28.1599 32.4 28.1599C35.4928 28.1599 38 30.6671 38 33.7599Z" fill="#6D4D45"/>
<path fill-rule="evenodd" clip-rule="evenodd" d="M31.8444 12.6274L32.9553 14.5726L16.7644 23.8191L32.9425 32.7802L31.8571 34.7397L12.1953 23.8489L31.8444 12.6274Z" fill="#6D4D45"/>
</svg>
