<svg width="40" height="40" viewBox="0 0 40 40" fill="none" xmlns="http://www.w3.org/2000/svg">
<g clip-path="url(#clip0_731_6572)">
<path d="M20.0007 36.6663C29.2054 36.6663 36.6673 29.2044 36.6673 19.9997C36.6673 10.7949 29.2054 3.33301 20.0007 3.33301C10.7959 3.33301 3.33398 10.7949 3.33398 19.9997C3.33398 29.2044 10.7959 36.6663 20.0007 36.6663Z" fill="#1D9BF0"/>
<path d="M28.9151 16.5649C28.9275 16.7497 28.9275 16.9345 28.9275 17.1211C28.9275 22.8043 24.7089 29.3587 16.9949 29.3587V29.3553C14.7161 29.3587 12.4847 28.6893 10.5664 27.4271C10.8978 27.468 11.2308 27.4885 11.5646 27.4893C13.453 27.491 15.2875 26.8412 16.7732 25.6446C14.9786 25.6097 13.4049 24.4097 12.8551 22.6578C13.4838 22.7821 14.1315 22.7566 14.7485 22.5837C12.792 22.1783 11.3844 20.4153 11.3844 18.3679C11.3844 18.3492 11.3844 18.3313 11.3844 18.3134C11.9674 18.6464 12.6201 18.8312 13.2878 18.8517C11.445 17.5886 10.877 15.0745 11.9898 13.1088C14.1191 15.7959 17.2606 17.4294 20.6331 17.6023C20.2951 16.1084 20.7568 14.543 21.8463 13.4929C23.5355 11.8645 26.1921 11.948 27.7799 13.6795C28.7191 13.4895 29.6193 13.1361 30.4431 12.6353C30.13 13.6309 29.4748 14.4766 28.5995 15.014C29.4308 14.9135 30.243 14.6853 31.0078 14.3369C30.4448 15.2022 29.7356 15.956 28.9151 16.5649Z" fill="white"/>
</g>
<defs>
<clipPath id="clip0_731_6572">
<rect width="40" height="40" fill="white"/>
</clipPath>
</defs>
</svg>
